<svg width="192" height="192" viewBox="0 0 192 192" fill="none" xmlns="http://www.w3.org/2000/svg">
<path d="M116 94.4004C116.524 94.4004 117.024 94.5015 117.482 94.6846C130.222 96.5622 140 107.539 140 120.8C140 135.38 128.18 147.2 113.6 147.2C111.391 147.2 109.6 145.409 109.6 143.2C109.6 140.991 111.391 139.2 113.6 139.2C123.762 139.2 132 130.962 132 120.8C132 110.797 124.018 102.658 114.075 102.406L113.6 102.4H20C17.791 102.4 16.0002 100.609 16 98.4004C16 96.1913 17.7909 94.4004 20 94.4004H116ZM92.7998 110.4C95.0089 110.4 96.7998 112.191 96.7998 114.4C96.7996 116.609 95.0088 118.4 92.7998 118.4H20C17.791 118.4 16.0002 116.609 16 114.4C16 112.191 17.7909 110.4 20 110.4H92.7998ZM144.8 24C162.031 24 176 37.9689 176 55.2002C176 72.4314 162.031 86.4004 144.8 86.4004C144.526 86.4004 144.258 86.3718 144 86.3193C143.742 86.3718 143.474 86.4004 143.2 86.4004H20C17.791 86.4004 16.0002 84.6093 16 82.4004C16 80.1913 17.7909 78.4004 20 78.4004H143.2C143.474 78.4004 143.742 78.427 144 78.4795C144.258 78.427 144.526 78.4004 144.8 78.4004C157.613 78.4004 168 68.0131 168 55.2002C168 42.3872 157.613 32 144.8 32C131.987 32.0001 121.6 42.3873 121.6 55.2002C121.6 57.4092 119.809 59.2002 117.6 59.2002C115.391 59.2 113.6 57.4091 113.6 55.2002C113.6 37.969 127.569 24.0001 144.8 24Z" fill="white"/>
</svg>
